<svg xmlns="http://www.w3.org/2000/svg" xmlns:xlink="http://www.w3.org/1999/xlink" version="1.1" data-diagram-type="DESCRIPTION" style="width:1673px;height:1474px;background:#FFFFFF;" width="1673px" height="1474px" viewBox="0 0 1673 1474" zoomAndPan="magnify" preserveAspectRatio="none" contentStyleType="text/css"><?plantuml 1.2026.7beta11?><defs/><g font-family="sans-serif" lengthAdjust="spacing"><g class="title" data-source-line="6"><text x="508.019" y="40.421" fill="#000" font-size="22" textLength="654.962" font-weight="700" font-family="Verdana">AitmaadOrganics - E-Commerce Architecture &amp; Tools</text></g><rect x="8" y="64.609" width="1652" height="16.641" fill="#FFC" style="stroke:#FD8;stroke-width:3;" rx="2.5" ry="2.5"/><text x="15" y="75.25" fill="#000" font-size="10" textLength="295.005" font-family="monospace">Please use CSS style instead of skinparam padding</text><!--cluster Version Control & Hosting--><g class="cluster" data-qualified-name="Version Control . Hosting" id="ent0003" data-source-line="11"><path d="M28.5,132.25 L245.303,132.25 A3.75,3.75 0 0 1 247.803,134.75 L254.803,164.547 L585.5,164.547 A2.5,2.5 0 0 1 588,167.047 L588,266.04 A2.5,2.5 0 0 1 585.5,268.54 L28.5,268.54 A2.5,2.5 0 0 1 26,266.04 L26,134.75 A2.5,2.5 0 0 1 28.5,132.25" style="stroke:#000;stroke-width:1;" fill="#FFF"/><line x1="26" y1="164.547" x2="254.803" y2="164.547" style="stroke:#000;stroke-width:1;"/><text x="35" y="152.245" fill="#000" font-size="14" textLength="205.803" font-weight="700" font-family="Verdana">Version Control &amp; Hosting</text></g><!--cluster Frontend Application (Client-Side)--><g class="cluster" data-qualified-name="Frontend Application .Client-Side." id="ent0006" data-source-line="16"><path d="M13.5,346.04 L294.807,346.04 A3.75,3.75 0 0 1 297.307,348.54 L304.307,378.337 L1053.5,378.337 A2.5,2.5 0 0 1 1056,380.837 L1056,599.42 A2.5,2.5 0 0 1 1053.5,601.92 L13.5,601.92 A2.5,2.5 0 0 1 11,599.42 L11,348.54 A2.5,2.5 0 0 1 13.5,346.04" style="stroke:#000;stroke-width:1;" fill="#FFF"/><line x1="11" y1="378.337" x2="304.307" y2="378.337" style="stroke:#000;stroke-width:1;"/><text x="20" y="366.035" fill="#000" font-size="14" textLength="270.307" font-weight="700" font-family="Verdana">Frontend Application (Client-Side)</text></g><!--cluster Storefront--><g class="cluster" data-qualified-name="Frontend Application .Client-Side..Storefront" id="ent0007" data-source-line="17"><rect x="43" y="408.3" width="468" height="160.36" fill="#FFF" style="stroke:#000;stroke-width:1;" rx="2.5" ry="2.5"/><text x="195.594" y="428.295" fill="#000" font-size="14" textLength="162.812" font-weight="700" font-family="Verdana">Customer Storefront</text></g><!--cluster AdminPanel--><g class="cluster" data-qualified-name="Frontend Application .Client-Side..AdminPanel" id="ent0010" data-source-line="22"><rect x="551" y="407.04" width="473" height="162.88" fill="#FFF" style="stroke:#000;stroke-width:1;" rx="2.5" ry="2.5"/><text x="717.268" y="427.035" fill="#000" font-size="14" textLength="140.465" font-weight="700" font-family="Verdana">Admin Dashboard</text></g><!--cluster Backend Application (API/Server)--><g class="cluster" data-qualified-name="Backend Application .API.Server." id="ent0013" data-source-line="28"><path d="M564.5,660.92 L837.979,660.92 A3.75,3.75 0 0 1 840.479,663.42 L847.479,693.217 L1073.5,693.217 A2.5,2.5 0 0 1 1076,695.717 L1076,1221.77 A2.5,2.5 0 0 1 1073.5,1224.27 L564.5,1224.27 A2.5,2.5 0 0 1 562,1221.77 L562,663.42 A2.5,2.5 0 0 1 564.5,660.92" style="stroke:#000;stroke-width:1;" fill="#FFF"/><line x1="562" y1="693.217" x2="847.479" y2="693.217" style="stroke:#000;stroke-width:1;"/><text x="571" y="680.915" fill="#000" font-size="14" textLength="262.479" font-weight="700" font-family="Verdana">Backend Application (API/Server)</text></g><!--cluster Security--><g class="cluster" data-qualified-name="Backend Application .API.Server..Security" id="ent0015" data-source-line="31"><rect x="594" y="862.21" width="237" height="144.83" fill="#FFF" style="stroke:#000;stroke-width:1;" rx="2.5" ry="2.5"/><text x="655.434" y="882.205" fill="#000" font-size="14" textLength="114.133" font-weight="700" font-family="Verdana">Security Layer</text></g><!--cluster Controllers--><g class="cluster" data-qualified-name="Backend Application .API.Server..Controllers" id="ent0017" data-source-line="35"><rect x="684" y="1074.04" width="368" height="126.23" fill="#FFF" style="stroke:#000;stroke-width:1;" rx="2.5" ry="2.5"/><text x="824.298" y="1094.035" fill="#000" font-size="14" textLength="87.404" font-weight="700" font-family="Verdana">Controllers</text></g><!--cluster DB--><g class="cluster" data-qualified-name="DB" id="ent0020" data-source-line="41"><path d="M674,1293.27 C674,1283.27 865.5,1283.27 865.5,1283.27 C865.5,1283.27 1057,1283.27 1057,1293.27 L1057,1439.57 C1057,1449.57 865.5,1449.57 865.5,1449.57 C865.5,1449.57 674,1449.57 674,1439.57 L674,1293.27" style="stroke:#000;stroke-width:1;" fill="#FFF"/><path d="M674,1293.27 C674,1303.27 865.5,1303.27 865.5,1303.27 C865.5,1303.27 1057,1303.27 1057,1293.27" style="stroke:#000;stroke-width:1;" fill="none"/><text x="794.796" y="1323.265" fill="#000" font-size="14" textLength="141.408" font-weight="700" font-family="Verdana">Primary Database</text></g><!--cluster Client Handover Package--><g class="cluster" data-qualified-name="Client Handover Package" id="ent0023" data-source-line="46"><path d="M1223.5,132.25 L1432.852,132.25 A3.75,3.75 0 0 1 1435.352,134.75 L1442.352,164.547 L1655.5,164.547 A2.5,2.5 0 0 1 1658,167.047 L1658,266.04 A2.5,2.5 0 0 1 1655.5,268.54 L1223.5,268.54 A2.5,2.5 0 0 1 1221,266.04 L1221,134.75 A2.5,2.5 0 0 1 1223.5,132.25" style="stroke:#000;stroke-width:1;" fill="#FFF"/><line x1="1221" y1="164.547" x2="1442.352" y2="164.547" style="stroke:#000;stroke-width:1;"/><text x="1230" y="152.245" fill="#000" font-size="14" textLength="198.352" font-weight="700" font-family="Verdana">Client Handover Package</text></g><!--entity GitHub--><g class="entity" data-qualified-name="Version Control . Hosting.GitHub" id="ent0004" data-source-line="12"><rect x="41.98" y="206.25" width="158.037" height="46.297" fill="#FFF" style="stroke:#000;stroke-width:1;" rx="2.5" ry="2.5"/><text x="56.98" y="234.245" fill="#000" font-size="14" textLength="128.037" font-family="Verdana">GitHub Repository</text></g><!--entity Vercel--><g class="entity" data-qualified-name="Version Control . Hosting.Vercel" id="ent0005" data-source-line="13"><rect x="434.06" y="206.25" width="137.885" height="46.297" fill="#FFF" style="stroke:#000;stroke-width:1;" rx="2.5" ry="2.5"/><text x="449.06" y="234.245" fill="#000" font-size="14" textLength="107.885" font-family="Verdana">Vercel Platform</text></g><!--entity ProductUI--><g class="entity" data-qualified-name="Frontend Application .Client-Side..Storefront.ProductUI" id="ent0008" data-source-line="18"><ellipse cx="161.996" cy="517.476" rx="94.896" ry="26.916" fill="#FFF" style="stroke:#000;stroke-width:1;"/><text x="108.648" y="510.799" fill="#000" font-size="14" textLength="106.695" font-family="Verdana">Product Details</text><text x="85.163" y="527.096" fill="#000" font-size="14" textLength="153.665" font-family="Verdana">(Ingredients &amp; Usage)</text></g><!--entity Checkout--><g class="entity" data-qualified-name="Frontend Application .Client-Side..Storefront.Checkout" id="ent0009" data-source-line="19"><ellipse cx="380.002" cy="517.479" rx="87.762" ry="27.179" fill="#FFF" style="stroke:#000;stroke-width:1;"/><text x="326.774" y="511.459" fill="#000" font-size="14" textLength="106.456" font-family="Verdana">Checkout Form</text><text x="310.344" y="527.756" fill="#000" font-size="14" textLength="139.316" font-family="Verdana">(Flat Rate Shipping)</text></g><!--entity OrderMgmt--><g class="entity" data-qualified-name="Frontend Application .Client-Side..AdminPanel.OrderMgmt" id="ent0011" data-source-line="23"><ellipse cx="665.997" cy="517.475" rx="90.607" ry="28.435" fill="#FFF" style="stroke:#000;stroke-width:1;"/><text x="597.644" y="514.362" fill="#000" font-size="14" textLength="136.705" font-family="Verdana">Order Management</text><text x="599.869" y="530.659" fill="#000" font-size="14" textLength="132.255" font-family="Verdana">(View COD Orders)</text></g><!--entity ProductMgmt--><g class="entity" data-qualified-name="Frontend Application .Client-Side..AdminPanel.ProductMgmt" id="ent0012" data-source-line="24"><ellipse cx="886.002" cy="517.475" rx="94.332" ry="27.255" fill="#FFF" style="stroke:#000;stroke-width:1;"/><text x="810.81" y="516.504" fill="#000" font-size="14" textLength="150.384" font-family="Verdana">Product Management</text><text x="828.412" y="532.801" fill="#000" font-size="14" textLength="115.179" font-family="Verdana">(Add/Edit Fields)</text></g><!--entity Router--><g class="entity" data-qualified-name="Backend Application .API.Server..Router" id="ent0014" data-source-line="29"><rect x="715.69" y="734.92" width="180.623" height="46.297" fill="#FFF" style="stroke:#000;stroke-width:1;" rx="2.5" ry="2.5"/><text x="730.69" y="762.915" fill="#000" font-size="14" textLength="150.623" font-family="Verdana">API Gateway / Routes</text></g><!--entity Honeypot--><g class="entity" data-qualified-name="Backend Application .API.Server..Security.Honeypot" id="ent0016" data-source-line="32"><ellipse cx="702.995" cy="963.633" rx="85.065" ry="19.413" fill="#FFF" style="stroke:#000;stroke-width:1;"/><text x="631.758" y="968.281" fill="#000" font-size="14" textLength="142.475" font-family="Verdana">Honeypot Validation</text></g><!--entity OrderCtrl--><g class="entity" data-qualified-name="Backend Application .API.Server..Controllers.OrderCtrl" id="ent0018" data-source-line="36"><ellipse cx="771.998" cy="1166.156" rx="71.538" ry="17.576" fill="#FFF" style="stroke:#000;stroke-width:1;"/><text x="715.171" y="1170.804" fill="#000" font-size="14" textLength="113.654" font-family="Verdana">Order Controller</text></g><!--entity ProductCtrl--><g class="entity" data-qualified-name="Backend Application .API.Server..Controllers.ProductCtrl" id="ent0019" data-source-line="37"><ellipse cx="956.997" cy="1166.157" rx="78.587" ry="18.117" fill="#FFF" style="stroke:#000;stroke-width:1;"/><text x="893.33" y="1170.806" fill="#000" font-size="14" textLength="127.333" font-family="Verdana">Product Controller</text></g><!--entity DBProducts--><g class="entity" data-qualified-name="DB.DBProducts" id="ent0021" data-source-line="42"><rect x="880.65" y="1391.27" width="160.702" height="42.297" fill="#FFF" style="stroke:#000;stroke-width:1;" rx="2.5" ry="2.5"/><rect x="876.65" y="1387.27" width="160.702" height="42.297" fill="#FFF" style="stroke:#000;stroke-width:1;" rx="2.5" ry="2.5"/><text x="889.65" y="1413.265" fill="#000" font-size="14" textLength="134.702" font-family="Verdana">Products Collection</text></g><!--entity DBOrders--><g class="entity" data-qualified-name="DB.DBOrders" id="ent0022" data-source-line="43"><rect x="694.49" y="1391.27" width="147.023" height="42.297" fill="#FFF" style="stroke:#000;stroke-width:1;" rx="2.5" ry="2.5"/><rect x="690.49" y="1387.27" width="147.023" height="42.297" fill="#FFF" style="stroke:#000;stroke-width:1;" rx="2.5" ry="2.5"/><text x="703.49" y="1413.265" fill="#000" font-size="14" textLength="121.023" font-family="Verdana">Orders Collection</text></g><!--entity KeePass--><g class="entity" data-qualified-name="Client Handover Package.KeePass" id="ent0024" data-source-line="47"><path d="M1480.31,208.75 L1480.31,250.047 A2.5,2.5 0 0 0 1482.81,252.547 L1639.183,252.547 A2.5,2.5 0 0 0 1641.683,250.047 L1641.683,216.25 L1631.683,206.25 L1482.81,206.25 A2.5,2.5 0 0 0 1480.31,208.75" style="stroke:#000;stroke-width:1;" fill="#FFF"/><path d="M1631.683,206.25 L1631.683,213.75 A2.5,2.5 0 0 0 1634.183,216.25 L1641.683,216.25" style="stroke:#000;stroke-width:1;" fill="#FFF"/><text x="1495.31" y="234.245" fill="#000" font-size="14" textLength="131.373" font-family="Verdana">KeePassXC (.kdbx)</text></g><!--entity Docs--><g class="entity" data-qualified-name="Client Handover Package.Docs" id="ent0025" data-source-line="48"><path d="M1236.92,208.75 L1236.92,250.047 A2.5,2.5 0 0 0 1239.42,252.547 L1442.571,252.547 A2.5,2.5 0 0 0 1445.071,250.047 L1445.071,216.25 L1435.071,206.25 L1239.42,206.25 A2.5,2.5 0 0 0 1236.92,208.75" style="stroke:#000;stroke-width:1;" fill="#FFF"/><path d="M1435.071,206.25 L1435.071,213.75 A2.5,2.5 0 0 0 1437.571,216.25 L1445.071,216.25" style="stroke:#000;stroke-width:1;" fill="#FFF"/><text x="1251.92" y="234.245" fill="#000" font-size="14" textLength="178.151" font-family="Verdana">Documentation (PDF/MD)</text></g><!--entity Customer--><g class="entity" data-qualified-name="Customer" id="ent0001" data-source-line="8"><ellipse cx="646.002" cy="194.75" rx="8" ry="8" fill="#FFF" style="stroke:#000;stroke-width:1;"/><path d="M646.002,202.75 L646.002,229.75 M633.002,210.75 L659.002,210.75 M646.002,229.75 L633.002,244.75 M646.002,229.75 L659.002,244.75" style="stroke:#000;stroke-width:1;" fill="none"/><text x="612" y="264.745" fill="#000" font-size="14" textLength="68.004" font-family="Verdana">Customer</text></g><!--entity Admin--><g class="entity" data-qualified-name="Admin" id="ent0002" data-source-line="9"><ellipse cx="1015.996" cy="194.75" rx="8" ry="8" fill="#FFF" style="stroke:#000;stroke-width:1;"/><path d="M1015.996,202.75 L1015.996,229.75 M1002.996,210.75 L1028.996,210.75 M1015.996,229.75 L1002.996,244.75 M1015.996,229.75 L1028.996,244.75" style="stroke:#000;stroke-width:1;" fill="none"/><text x="966.49" y="264.745" fill="#000" font-size="14" textLength="99.012" font-family="Verdana">Admin / Client</text></g><!--link GitHub to Vercel--><g class="link" data-entity-1="ent0004" data-entity-2="ent0005" id="lnk26" data-source-line="54" data-link-type="dependency"><path d="M200.15,229.4 C268.99,229.4 362.76,229.4 428.57,229.4" style="stroke:#000;stroke-width:1;" fill="none" id="GitHub-to-Vercel"/><polygon points="433.57,229.4,424.57,225.4,428.57,229.4,424.57,233.4,433.57,229.4" fill="#000" style="stroke:#000;stroke-width:1;stroke-linejoin:miter;stroke-miterlimit:10;"/><text x="223.04" y="217.467" fill="#000" font-size="13" textLength="188.697" font-family="Verdana">Triggers Auto-Deploy (CI/CD)</text></g><!--link Vercel to Storefront--><g class="link" data-entity-1="ent0005" data-entity-2="ent0007" id="lnk27" data-source-line="55" data-link-type="dependency"><path d="M503,252.84 C503,286.035 503,345.42 503,402.251" style="stroke:#000;stroke-width:1;" fill="none" id="Vercel-to-Storefront"/><polygon points="503,407.251,507,398.251,503,402.251,499,398.251,503,407.251" fill="#000" style="stroke:#000;stroke-width:1;stroke-linejoin:miter;stroke-miterlimit:10;"/><text x="509" y="321.107" fill="#000" font-size="13" textLength="36.372" font-family="Verdana">Hosts</text></g><!--link Vercel to AdminPanel--><g class="link" data-entity-1="ent0005" data-entity-2="ent0010" id="lnk28" data-source-line="56" data-link-type="dependency"><path d="M538.59,253.04 C553.62,261.65 571.64,270.77 589,276.54 C599.85,280.15 988.07,329.81 996,338.04 C1023.235,366.345 1028.505,410.015 1026.835,447.067 C1026.418,456.331 1025.566,465.18 1024.516,473.273 C1024.385,474.284 1024.25,475.284 1024.113,476.271 C1024.079,476.518 1024.743,471.813 1024.708,472.058" style="stroke:#000;stroke-width:1;" fill="none" id="Vercel-to-AdminPanel"/><polygon points="1024.01,477.009,1029.228,468.656,1024.708,472.058,1021.306,467.539,1024.01,477.009" fill="#000" style="stroke:#000;stroke-width:1;stroke-linejoin:miter;stroke-miterlimit:10;"/><text x="957" y="321.107" fill="#000" font-size="13" textLength="36.372" font-family="Verdana">Hosts</text></g><!--link Customer to Storefront--><g class="link" data-entity-1="ent0001" data-entity-2="ent0007" id="lnk29" data-source-line="59" data-link-type="dependency"><path d="M606.67,271.49 C590.12,290.54 571.77,314.22 559,338.04 C539.68,374.1 525.813,417.89 516.71,453.065 C515.572,457.462 514.509,461.724 513.519,465.82 C513.023,467.868 512.547,469.874 512.088,471.835 C511.859,472.815 511.634,473.784 511.413,474.741 C511.303,475.219 512.307,470.82 512.2,471.293" style="stroke:#000;stroke-width:1;" fill="none" id="Customer-to-Storefront"/><polygon points="511.086,476.167,516.99,468.284,512.2,471.293,509.191,466.503,511.086,476.167" fill="#000" style="stroke:#000;stroke-width:1;stroke-linejoin:miter;stroke-miterlimit:10;"/><text x="586" y="321.107" fill="#000" font-size="13" textLength="104.419" font-family="Verdana">Browses &amp; Buys</text></g><!--link Admin to AdminPanel--><g class="link" data-entity-1="ent0002" data-entity-2="ent0010" id="lnk30" data-source-line="60" data-link-type="dependency"><path d="M1016,273.54 C1016,293.208 1016,317.908 1016,343.973 C1016,357.006 1016,370.38 1016,383.636 C1016,390.265 1016,396.863 1016,403.376 C1016,404.19 1016,405.002 1016,405.814 C1016,406.219 1016,401.624 1016,402.029" style="stroke:#000;stroke-width:1;" fill="none" id="Admin-to-AdminPanel"/><polygon points="1016,407.029,1020,398.029,1016,402.029,1012,398.029,1016,407.029" fill="#000" style="stroke:#000;stroke-width:1;stroke-linejoin:miter;stroke-miterlimit:10;"/><text x="1022" y="321.107" fill="#000" font-size="13" textLength="97.189" font-family="Verdana">Manages Store</text></g><!--link Admin to Docs--><g class="link" data-entity-1="ent0002" data-entity-2="ent0025" id="lnk31" data-source-line="61" data-link-type="dependency"><path d="M1070.76,229.4 C1115.99,229.4 1176.48,229.4 1231.66,229.4" style="stroke:#000;stroke-width:1;" fill="none" id="Admin-to-Docs"/><polygon points="1236.66,229.4,1227.66,225.4,1231.66,229.4,1227.66,233.4,1236.66,229.4" fill="#000" style="stroke:#000;stroke-width:1;stroke-linejoin:miter;stroke-miterlimit:10;"/><text x="1093.72" y="217.467" fill="#000" font-size="13" textLength="120.504" font-family="Verdana">Reads Instructions</text></g><!--link Admin to KeePass--><g class="link" data-entity-1="ent0002" data-entity-2="ent0024" id="lnk32" data-source-line="62" data-link-type="dependency"><path d="M1048.22,185.37 C1068.83,161.1 1097.87,133.26 1131,120.02 C1199.52,92.64 1396.83,91.61 1463,124.25 C1499.93,142.46 1527.185,176.721 1543.875,201.731" style="stroke:#000;stroke-width:1;" fill="none" id="Admin-to-KeePass"/><polygon points="1546.65,205.89,1544.981,196.184,1543.875,201.731,1538.327,200.624,1546.65,205.89" fill="#000" style="stroke:#000;stroke-width:1;stroke-linejoin:miter;stroke-miterlimit:10;"/><text x="1137" y="107.317" fill="#000" font-size="13" textLength="276.199" font-family="Verdana">Unlocks Secure Credentials (ENVs, Logins)</text></g><!--link Storefront to Router--><g class="link" data-entity-1="ent0007" data-entity-2="ent0014" id="lnk33" data-source-line="65" data-link-type="dependency"><path d="M511.13,537.21 C511.186,537.328 511.241,537.446 511.297,537.564 C511.743,538.511 512.206,539.484 512.685,540.48 C514.603,544.463 516.785,548.819 519.214,553.402 C528.928,571.735 542.58,593.695 559,609.92 C616.08,666.3 694.325,707.816 748.025,732.446" style="stroke:#000;stroke-width:1;" fill="none" id="Storefront-to-Router"/><polygon points="752.57,734.53,746.057,727.142,748.025,732.446,742.722,734.414,752.57,734.53" fill="#000" style="stroke:#000;stroke-width:1;stroke-linejoin:miter;stroke-miterlimit:10;"/><text x="600" y="635.987" fill="#000" font-size="13" textLength="84.862" font-family="Verdana">API Requests</text></g><!--link AdminPanel to Router--><g class="link" data-entity-1="ent0010" data-entity-2="ent0014" id="lnk34" data-source-line="66" data-link-type="dependency"><path d="M1011.156,570.162 C1011.123,570.316 1011.089,570.469 1011.055,570.623 C1010.786,571.853 1010.502,573.088 1010.203,574.325 C1009.606,576.798 1008.948,579.281 1008.225,581.754 C1005.331,591.647 1001.382,601.402 996,609.92 C960.23,666.52 898.996,707.553 855.026,732.103" style="stroke:#000;stroke-width:1;" fill="none" id="AdminPanel-to-Router"/><polygon points="850.66,734.54,860.468,733.645,855.026,732.103,856.568,726.66,850.66,734.54" fill="#000" style="stroke:#000;stroke-width:1;stroke-linejoin:miter;stroke-miterlimit:10;"/><text x="994" y="635.987" fill="#000" font-size="13" textLength="84.862" font-family="Verdana">API Requests</text></g><!--link Router to Security--><g class="link" data-entity-1="ent0014" data-entity-2="ent0015" id="lnk35" data-source-line="69" data-link-type="dependency"><path d="M751.12,781.58 C722.08,796.63 696,817.43 715,838.21 C728.4,852.87 789.46,832.69 804,846.21 C806.361,848.408 808.429,851.827 810.24,856.134 C810.693,857.211 811.129,858.343 811.55,859.526 C811.761,860.117 811.968,860.721 812.171,861.337 C812.221,861.491 810.734,856.888 810.784,857.043" style="stroke:#000;stroke-width:1;" fill="none" id="Router-to-Security"/><polygon points="812.322,861.801,813.359,852.007,810.784,857.043,805.747,854.468,812.322,861.801" fill="#000" style="stroke:#000;stroke-width:1;stroke-linejoin:miter;stroke-miterlimit:10;"/><text x="721" y="829.277" fill="#000" font-size="13" textLength="157.2" font-family="Verdana">Checkout POST Request</text></g><!--link Security to OrderCtrl--><g class="link" data-entity-1="ent0015" data-entity-2="ent0018" id="lnk36" data-source-line="70" data-link-type="dependency"><path d="M816.008,1007.255 C815.966,1007.35 815.922,1007.444 815.879,1007.538 C813.098,1013.559 809.268,1019.045 804,1023.04 C786.81,1036.07 624.94,1015.47 610,1031.04 C563.1,1079.91 664.542,1126.632 726.552,1149.622" style="stroke:#000;stroke-width:1;" fill="none" id="Security-to-OrderCtrl"/><polygon points="731.24,1151.36,724.192,1144.481,726.552,1149.622,721.411,1151.982,731.24,1151.36" fill="#000" style="stroke:#000;stroke-width:1;stroke-linejoin:miter;stroke-miterlimit:10;"/><text x="616" y="1049.107" fill="#000" font-size="13" textLength="174.618" font-family="Verdana">Passes Validation (Human)</text></g><!--link Security to OrderCtrl--><!--link Router to ProductCtrl--><g class="link" data-entity-1="ent0014" data-entity-2="ent0019" id="lnk38" data-source-line="73" data-link-type="dependency"><path d="M853.37,781.57 C866.04,789.46 878.76,799.37 888,811.21 C958.36,901.41 963.13,943.66 961,1058.04 C960.41,1089.67 959.073,1121.535 958.083,1142.725" style="stroke:#000;stroke-width:1;" fill="none" id="Router-to-ProductCtrl"/><polygon points="957.85,1147.72,962.266,1138.916,958.083,1142.725,954.274,1138.543,957.85,1147.72" fill="#000" style="stroke:#000;stroke-width:1;stroke-linejoin:miter;stroke-miterlimit:10;"/><text x="967" y="968.197" fill="#000" font-size="13" textLength="155.937" font-family="Verdana">Product CRUD Requests</text></g><!--link OrderCtrl to DBOrders--><g class="link" data-entity-1="ent0018" data-entity-2="ent0022" id="lnk39" data-source-line="76" data-link-type="dependency"><path d="M771.58,1184.19 C770.52,1226.95 767.874,1333.812 766.684,1381.912" style="stroke:#000;stroke-width:1;" fill="none" id="OrderCtrl-to-DBOrders"/><polygon points="766.56,1386.91,770.781,1378.012,766.684,1381.912,762.784,1377.814,766.56,1386.91" fill="#000" style="stroke:#000;stroke-width:1;stroke-linejoin:miter;stroke-miterlimit:10;"/><text x="776" y="1258.337" fill="#000" font-size="13" textLength="129.188" font-family="Verdana">Create/Read Orders</text></g><!--link ProductCtrl to DBProducts--><g class="link" data-entity-1="ent0019" data-entity-2="ent0021" id="lnk40" data-source-line="77" data-link-type="dependency"><path d="M957.14,1184.58 C957.5,1227.65 958.379,1334.11 958.769,1382.01" style="stroke:#000;stroke-width:1;" fill="none" id="ProductCtrl-to-DBProducts"/><polygon points="958.81,1387.01,962.737,1377.978,958.769,1382.01,954.737,1378.043,958.81,1387.01" fill="#000" style="stroke:#000;stroke-width:1;stroke-linejoin:miter;stroke-miterlimit:10;"/><text x="963" y="1258.337" fill="#000" font-size="13" textLength="133.313" font-family="Verdana">Read/Write Products</text></g><?plantuml-src VLHDZo8t4BtthwXmI40AuPJB7291zx2Wx6G836IbJGwcxMait7R7TeUWQFvxobzDmp3B0O7zgbxLAzVxpXvOpQ0HXClC7BbiY2OrbAfkb6JIRknPCD2ij4HMWlKWUr8UAwrQINCbb8RJWTl-VKCevRA2dxFCSej9fjpMXD1dNH79ImDZU1pdggwPBl5Ibow-jArcy3syA2LCbf7IOkP1tXgh43S0OY3zIPTJMdC94yW5ntezn1zbMOCLaeh1OCUquKf2hgJLIc3-XJ8MYnl0VndWfsiN1f-uNRHxMBD66Ou4PvyndDvYTwvq0Ij1xAlIjKU6i-ojHp_NoCiaXMdJ25uIwsePXdh76qxPw4uTgKtOO17irQNm-Iz_Oupxj8QLn23LIYlQbXOAPWaNvayvNCfAC-ge3FQzDLZHo2UAqEtoVPRymCgZQYtCiIlCCSS6OKqiWys1DmqA5r8adC_mvhzlsmZJAOWvx1NHz3AU5P4etPqMdZN5hf-8n4fhp87yEyvEa3yNuEzC8FU_dwhQVgp2LP8ffPD7oh4fpWGrLo9qQTwk1ZV37-_cDbqj9nkc_s7wtjZm5ZwXKYTonZUvHd6OyKp-fxwhqOQLhURs39_9EJxoxkYEG0iCEpVAmeu8JdrLFYQTVsCQSG44YXW6UFd_yIWke8lkkTNYOzrl8k9n5-D5niB9FaRnckWpFf9mucEAMQSjvYbTawOZS8MdquXED-zZmfjv7n7Eh-OTLX8MH5A5yuLLk4XZVkNeOeDV6LiHOxxaCFpfIFV_XeSKJtkuGfMjUthnsQoA-UIf262yyiG_m7WyHgiH7cDmjmmWjrS2vaATtBs3HRl21IvO8zJPvSsYKur_YPu33_2YULMvRgUjLUE0HQTPJl9Yb4NKcAgJnA2UaJnu0dEBwErfGc0jMuFABD7GD0aIPvrLtKqzq-fac3EVMNisMJ24knHXNQF59I1sTB28T9eXPiq8DKXlh6uZ_GqmJWAnMobKUOpBn2177qJTE146Xe-_xSoFy5bLN9gHQyjt98c0pgtTngBeMQ-RL7POPgHmwxvcVxVCYTDhvjj0f4lMuYeeimZhz4lR_z1PBAoUDoyfGzO1KaItb1ZYkaSLB-u0mqLR4pdgXNqzS8fY_7KdV1P4YrGmd2cB0jrKs5jfnvZsVhqjhhfCAms_jqnpPh8BKSgK5j7rgXawvyIDE3fzrkUvH7Gs4Dx3v0ziYgKgpFy0?></g></svg>